PathFileType	4	(X/Y/Z)	/Users/visionmauri/2_5_3_f_1_Sports2D/2_5_3_f_1_Sports2D_px_person00.trc
DataRate	CameraRate	NumFrames	NumMarkers	Units	OrigDataRate	OrigDataStartFrame	OrigNumFrames
30.0	30.0	4	22	m	30.0	298	341
Frame#	Time	Hip			RHip			RKnee			RAnkle			RBigToe			RSmallToe			RHeel			LHip			LKnee			LAnkle			LBigToe			LSmallToe			LHeel			Neck			Head			Nose			RShoulder			RElbow			RWrist			LShoulder			LElbow			LWrist			
		X1	Y1	Z1	X2	Y2	Z2	X3	Y3	Z3	X4	Y4	Z4	X5	Y5	Z5	X6	Y6	Z6	X7	Y7	Z7	X8	Y8	Z8	X9	Y9	Z9	X10	Y10	Z10	X11	Y11	Z11	X12	Y12	Z12	X13	Y13	Z13	X14	Y14	Z14	X15	Y15	Z15	X16	Y16	Z16	X17	Y17	Z17	X18	Y18	Z18	X19	Y19	Z19	X20	Y20	Z20	X21	Y21	Z21	X22	Y22	Z22
298	9.962549019607843	452.7601453276789	876.2090294694094	0.0	398.8571405005836	901.8074060886536	0.0	418.09351537966626	1115.9983789693495	0.0	451.4311149474893	1321.1295809310186	0.0	432.02375843809523	1405.6128179436312	0.0	401.99468498726316	1395.9333143227063	0.0	472.696119365778	1352.960698219846	0.0	513.5932720525485	892.8407607778415	0.0	531.4031065642008	1102.905856366967	0.0	547.9233376046948	1334.5825212246966	0.0	538.6120192079768	1417.2410800305756	0.0	578.4100487766183	1412.2084795641947	0.0	537.0580209586723	1371.9537005869424	0.0	424.2781044639762	524.5318335557195	0.0	411.23838099102846	373.5930238404733	0.0	383.5868744150135	466.742756311788	0.0	321.11637613573674	572.2780487697124	0.0	283.5734168658942	720.0656554499806	0.0	251.30229903400024	833.756469154422	0.0	533.7020963959577	565.1679267210036	0.0	615.4620064937587	710.5510299543364	0.0	682.2070994342689	819.7281425091547	0.0
299	9.995980392156863	453.5031671185331	874.0423470576234	0.0	398.87058415468795	900.8784013601021	0.0	417.88290899715213	1114.7726662259051	0.0	450.5552012575598	1320.4934059258248	0.0	431.860338092162	1404.958493549934	0.0	401.26634023237995	1395.1371763075394	0.0	473.8170920570646	1352.2135011132602	0.0	513.7287614534488	891.9662411169402	0.0	531.6860126659855	1103.4026715969485	0.0	548.6066100696146	1335.8279785425325	0.0	538.8547816358056	1415.275228007745	0.0	577.4302936074536	1412.5631461207818	0.0	538.2679717730634	1372.0672403100893	0.0	424.273195333456	524.5689380245416	0.0	412.7677259429953	373.61653323908666	0.0	391.64854419897813	465.2458843744829	0.0	321.0289888885082	572.8594139522438	0.0	283.1032211441496	720.0029105784937	0.0	250.0406480859696	831.8780988012941	0.0	533.7540720272805	564.595673944393	0.0	615.0864709097789	710.3602091942405	0.0	682.9146499101792	819.7284642266113	0.0
300	10.029411764705882	454.63707031497444	873.7900803754168	0.0	399.8020459692006	901.2228114992291	0.0	418.2132031117734	1115.3078989082649	0.0	450.130929120678	1319.8704578203974	0.0	431.2825942604227	1403.8061793697614	0.0	401.1666501131656	1393.919917125826	0.0	473.94628782629434	1351.473495585667	0.0	514.0437968500794	893.0283543382343	0.0	532.0137220425482	1104.7616425784604	0.0	548.5078680066885	1337.1016826294313	0.0	539.3439121542788	1415.0776077128792	0.0	576.8190660197395	1413.9100992708013	0.0	538.4856166776905	1371.9935616099608	0.0	424.66217077639664	525.0622555542343	0.0	413.8689756813468	374.3215500025747	0.0	399.38371129569003	464.3354585205781	0.0	321.36109266205904	574.1730575105604	0.0	282.60630188306493	720.4339852833295	0.0	249.94386128604495	830.79689109277	0.0	533.8470650469023	564.8832913651715	0.0	615.0375783220426	710.149226241383	0.0	685.3119149347133	820.6228968946446	0.0
301	10.062843137254902	455.106455040946	875.5014713279985	0.0	401.14286409570855	902.3009949941774	0.0	418.9792061154911	1116.6345511840725	0.0	450.6938342300044	1320.0015882563237	0.0	430.95896374308325	1403.2205025497663	0.0	402.3732972563734	1393.4610303715788	0.0	474.1404378607063	1351.639885733609	0.0	514.1566921962888	895.0037569846517	0.0	531.9618002938402	1105.8863286680835	0.0	546.9569870098371	1337.3608982577825	0.0	538.6993025999398	1415.9368445583737	0.0	576.2440310388839	1414.355052222751	0.0	537.2520840212521	1371.333962705109	0.0	425.48793611307923	526.2666250662071	0.0	414.873378445799	375.6308801262867	0.0	404.07295784561023	464.86665956734356	0.0	322.41739707728186	575.6374555680679	0.0	282.6487268140849	721.2657618320287	0.0	250.32502761819484	831.1274221515963	0.0	534.8972815362924	566.3202404030383	0.0	616.298592330928	710.3820364411004	0.0	686.7456166889333	821.5710499014458	0.0
